PathFileType	4	(X/Y/Z)	./resultDataOpenSim/trcMotMarkerGrf/sub10/qtm-15-05.trc
DataRate	CameraRate	NumFrames	NumMarkers	Units	OrigDataRate	OrigDataStartFrame	OrigNumFrames
250.000000	250.000000	7	24	m	250.000000	126	501
Frame#	Time	L.Toe.Tip			R.Toe.Tip			L.Ankle.Lat			R.Ankle.Lat			L.Ankle.Med			R.Ankle.Med			L.Heel			R.Heel			L.Knee.Lat			R.Knee.Lat			L.Knee.Med			R.Knee.Med			L.Thigh.Upper			R.Thigh.Upper			L.ASIS			R.ASIS			V.Sacral			L.Acromium			R.Acromium			C7			L.Elbow			R.Elbow			L.Wrist.Lat			R.Wrist.Lat
		X1	Y1	Z1	X2	Y2	Z2	X3	Y3	Z3	X4	Y4	Z4	X5	Y5	Z5	X6	Y6	Z6	X7	Y7	Z7	X8	Y8	Z8	X9	Y9	Z9	X10	Y10	Z10	X11	Y11	Z11	X12	Y12	Z12	X13	Y13	Z13	X14	Y14	Z14	X15	Y15	Z15	X16	Y16	Z16	X17	Y17	Z17	X18	Y18	Z18	X19	Y19	Z19	X20	Y20	Z20	X21	Y21	Z21	X22	Y22	Z22	X23	Y23	Z23	X24	Y24	Z24

126	0.5	-0.14247133	0.13482745	-0.12443164	-0.69638969	0.03941322	0.079455151	-0.2718767	0.092335115	-0.14879558	-0.83379764	0.057301587	0.12014778	-0.26971365	0.12044851	-0.066826	-0.81940658	0.081282501	0.034265044	-0.30925054	0.035249875	-0.1013016	-0.88961582	0.032992854	0.074281731	-0.42505047	0.45626085	-0.15915333	-0.71748251	0.45361671	0.16033403	-0.40320547	0.43065015	-0.040178764	-0.70086746	0.44247594	0.019905269	-0.56084667	0.81840309	-0.19351541	-0.62716685	0.85107516	0.18940693	-0.51756234	0.93152848	-0.12185637	-0.53865531	0.93856508	0.12580345	-0.7178371	0.93824605	-0.020204896	-0.59819206	1.4031961	-0.15094035	-0.58423544	1.3924105	0.17433523	-0.67531273	1.426651	0.013663716	-0.7539185	1.097177	-0.17921039	-0.5666468	1.0380429	0.23667259	-0.69949438	0.8685802	-0.25202821	-0.34456285	0.92556399	0.25176442
127	0.504	-0.13114441	0.13764186	-0.12333165	-0.69631455	0.03941101	0.079579195	-0.25970319	0.093359698	-0.14912841	-0.83364911	0.05742773	0.12007682	-0.25862761	0.12142295	-0.067056554	-0.81914755	0.081279234	0.034176002	-0.29677222	0.035636817	-0.10251001	-0.88974831	0.033185792	0.074322821	-0.41779522	0.45535223	-0.15926163	-0.71452078	0.45305662	0.1602409	-0.39764157	0.42898807	-0.039996404	-0.69705638	0.44166617	0.019389849	-0.55397543	0.81646803	-0.19342975	-0.62271904	0.84982624	0.18892722	-0.51113171	0.92998473	-0.12138165	-0.53395201	0.93727766	0.12598714	-0.71316937	0.93657148	-0.020213875	-0.59291059	1.4016758	-0.15102084	-0.57878707	1.3906743	0.17432379	-0.66973553	1.4250951	0.01355287	-0.74955013	1.0959824	-0.17895546	-0.5584908	1.0359781	0.2360019	-0.69629622	0.86742682	-0.25201882	-0.3357561	0.92618135	0.25059444
128	0.508	-0.12054275	0.13989247	-0.12241065	-0.69626938	0.039407546	0.07966363	-0.24831484	0.094098275	-0.14940972	-0.83347883	0.057589244	0.11999278	-0.24804754	0.12224285	-0.067174246	-0.81887127	0.0812972	0.034078237	-0.28517951	0.035857315	-0.10386619	-0.88977964	0.033450384	0.074252751	-0.4104339	0.45456183	-0.15939853	-0.71143907	0.45243117	0.1600791	-0.39202917	0.42742465	-0.039931105	-0.69319843	0.44078487	0.018840384	-0.54704398	0.81450593	-0.19332721	-0.61823477	0.8485052	0.188451	-0.50476891	0.92842043	-0.12091617	-0.52921901	0.93597656	0.12616116	-0.70925625	0.93551395	-0.020407632	-0.58763167	1.4001407	-0.15113848	-0.57333265	1.3889326	0.17427438	-0.66448454	1.4235606	0.013412214	-0.74510739	1.0946754	-0.1786987	-0.55025088	1.0338696	0.23522476	-0.69302286	0.86627491	-0.25205522	-0.32705654	0.92678819	0.24942094
129	0.512	-0.11062883	0.14152021	-0.12162141	-0.69624155	0.039395522	0.079718445	-0.23771895	0.094540177	-0.14964597	-0.8332853	0.057786829	0.11987806	-0.238153	0.12278298	-0.06731299	-0.8185737	0.081333993	0.033958957	-0.27449403	0.035860877	-0.10528975	-0.88968624	0.033807482	0.074046743	-0.40290207	0.45388881	-0.15953761	-0.70823391	0.45173692	0.15984382	-0.38629446	0.42596672	-0.039978279	-0.68918897	0.43982049	0.018268162	-0.54004069	0.81250762	-0.19321701	-0.61380897	0.84712955	0.18807569	-0.49849782	0.92681263	-0.12047242	-0.52449659	0.93465133	0.12635067	-0.7053008	0.93463263	-0.021272859	-0.58234634	1.3985906	-0.15129008	-0.56789361	1.3871817	0.17416162	-0.65954784	1.4220319	0.013240708	-0.74062898	1.0933348	-0.17846211	-0.54233455	1.0318768	0.23456222	-0.68967752	0.86511977	-0.25211368	-0.31849764	0.92739518	0.24827146
130	0.516	-0.1013624	0.14248562	-0.1209236	-0.6962135	0.039375979	0.079756877	-0.22790246	0.094680275	-0.14986245	-0.83306979	0.058013703	0.11972657	-0.22905652	0.12293343	-0.06757623	-0.81824729	0.081383888	0.033811728	-0.26469114	0.035636894	-0.10658749	-0.88956223	0.034241764	0.073808914	-0.39512771	0.45333318	-0.15963006	-0.7049007	0.45096993	0.15952967	-0.38032831	0.42464305	-0.040075434	-0.68498693	0.43876358	0.017676803	-0.53296539	0.81046541	-0.19311333	-0.60964125	0.84575238	0.18799374	-0.49230079	0.92516042	-0.12002025	-0.51979797	0.93329077	0.12656991	-0.70070047	0.9335012	-0.023018742	-0.57704758	1.3970346	-0.15147114	-0.56247277	1.3854185	0.17398463	-0.65459242	1.4204884	0.013045156	-0.73613758	1.092064	-0.17824285	-0.53492496	1.0300757	0.23411058	-0.68625764	0.86395514	-0.25217395	-0.31007055	0.92799924	0.24714127
131	0.52	-0.092719234	0.14277732	-0.12031142	-0.69617582	0.039352037	0.079784345	-0.21884401	0.094518581	-0.15009092	-0.83287713	0.058262363	0.11955497	-0.2207332	0.12266178	-0.06796195	-0.81788978	0.081444589	0.033641736	-0.25574386	0.035199115	-0.10767933	-0.8895272	0.03472426	0.073678427	-0.38705889	0.4528857	-0.15964154	-0.70143303	0.4501255	0.15913022	-0.37405955	0.42349673	-0.040154532	-0.68061918	0.43761656	0.017073544	-0.52581881	0.808385	-0.19302904	-0.60587186	0.84443139	0.18832552	-0.48614643	0.92346818	-0.11953611	-0.51509082	0.9318939	0.12680711	-0.6953502	0.93196302	-0.02538105	-0.57172972	1.3954749	-0.15167933	-0.55706172	1.3836484	0.17375843	-0.64928666	1.4189199	0.012836349	-0.73162218	1.0909077	-0.1780311	-0.52788175	1.0284191	0.23379135	-0.68275571	0.86277575	-0.25223374	-0.30173389	0.92858344	0.24599868
132	0.524	-0.084681835	0.14242591	-0.11978625	-0.69612531	0.039325248	0.079800137	-0.21052053	0.094063403	-0.15035367	-0.83282248	0.058535015	0.11939748	-0.2131243	0.12197449	-0.06843001	-0.81750688	0.081518719	0.03346156	-0.24763326	0.034548263	-0.10863143	-0.88960293	0.035232275	0.073684775	-0.37872966	0.45251756	-0.1595694	-0.69782383	0.44919888	0.15863874	-0.3674628	0.42255455	-0.040183156	-0.67612387	0.43638507	0.016465486	-0.51859946	0.80629253	-0.19298399	-0.60227197	0.84315037	0.18882062	-0.48000474	0.92172018	-0.11905251	-0.51034146	0.93046437	0.12704945	-0.68942683	0.93013766	-0.027603001	-0.56639445	1.3939071	-0.15191283	-0.55164549	1.3818819	0.17349606	-0.64363579	1.4173243	0.012611736	-0.7270588	1.0898202	-0.17783039	-0.52098581	1.0268274	0.23348755	-0.67915811	0.86157772	-0.25231071	-0.2934623	0.92913309	0.2448181
